# xmcd CD database file
#
# Track frame offsets:
#	180
#	12838
#	29381
#	38715
#	53667
#	66991
#	78976
#	91627
#	100942
#	114992
#	126754
#	138298
#	154421
#	169473
#
# Disc length: 2444 seconds
#
# Revision: 2
# Processed by: cddbd v1.4PL0 Copyright (c) Steve Scherf et al.
# Submitted via: CDex 1.40PlusFr
#
DISCID=ae098a0e
DTITLE=Nashville Music Company Und G ste - All the best Country and Western melodies 3
DYEAR=1900
DGENRE=Country
TTITLE0=Lucille
TTITLE1=Daddy, Please Come Back Home
TTITLE2=Kentucky Buggy
TTITLE3=Nur Eine Alte Country-Melodie
TTITLE4=Rhinestone Cowboy
TTITLE5=Stand by your man
TTITLE6=Georgia in A Jug
TTITLE7=Jambalaya
TTITLE8=Too Much Whiskey And No Love
TTITLE9=Cowboy From Kentucky Town
TTITLE10=I've Loved and Lost Again
TTITLE11=Welcome To Naschville
TTITLE12=Cottonfields
TTITLE13=Gentle on my minds
EXTD=ID3G: 2
EXTT0=
EXTT1=
EXTT2=
EXTT3=
EXTT4=
EXTT5=
EXTT6=
EXTT7=
EXTT8=
EXTT9=
EXTT10=
EXTT11=
EXTT12=
EXTT13=
PLAYORDER=
